<svg width="72" height="68" viewBox="0 0 72 68" fill="none" xmlns="http://www.w3.org/2000/svg">
<path d="M41.835 16.7203C53.5269 16.7203 61.999 26.259 61.999 36.8441C61.999 40.2249 61.013 43.7063 59.2823 46.8858C58.9603 47.4091 58.9201 48.0731 59.1415 48.697L60.4897 53.2047C60.7916 54.2914 59.8659 55.0963 58.8396 54.7743L54.7746 53.5669C53.6678 53.2047 52.8025 53.6675 51.7741 54.2914C48.8361 56.022 45.1756 56.9075 41.8753 56.9075C31.8939 56.9075 21.7515 49.2001 21.7515 36.7837C21.7515 26.0779 30.4047 16.7203 41.835 16.7203Z" fill="url(#paint0_linear_2463_14981)"/>
<g opacity="0.5" filter="url(#filter0_f_2463_14981)">
<path d="M54.6855 37.0446C54.6855 44.2239 48.867 50.0412 41.689 50.0412C34.511 50.0412 28.6924 44.2239 28.6924 37.0446C28.6924 29.8679 34.511 24.048 41.689 24.048C48.867 24.048 54.6855 29.8679 54.6855 37.0446Z" fill="#8237FF"/>
</g>
<g filter="url(#filter1_b_2463_14981)">
<mask id="path-3-outside-1_2463_14981" maskUnits="userSpaceOnUse" x="0" y="-0.00146484" width="54" height="54" fill="black">
<rect fill="white" y="-0.00146484" width="54" height="54"/>
<path d="M26.7301 0.998535C11.8107 0.998535 1 13.1702 1 26.6772C1 30.9913 2.25826 35.4337 4.46663 39.4909C4.87749 40.1586 4.92884 41.006 4.64638 41.802L2.9259 47.554C2.54072 48.9407 3.72194 49.9678 5.03156 49.557L10.2187 48.0163C11.631 47.554 12.7352 48.1447 14.0474 48.9407C17.7964 51.1491 22.4674 52.2789 26.6787 52.2789C39.4154 52.2789 52.3574 42.444 52.3574 26.6002C52.3574 12.9391 41.3156 0.998535 26.7301 0.998535Z"/>
</mask>
<path d="M26.7301 0.998535C11.8107 0.998535 1 13.1702 1 26.6772C1 30.9913 2.25826 35.4337 4.46663 39.4909C4.87749 40.1586 4.92884 41.006 4.64638 41.802L2.9259 47.554C2.54072 48.9407 3.72194 49.9678 5.03156 49.557L10.2187 48.0163C11.631 47.554 12.7352 48.1447 14.0474 48.9407C17.7964 51.1491 22.4674 52.2789 26.6787 52.2789C39.4154 52.2789 52.3574 42.444 52.3574 26.6002C52.3574 12.9391 41.3156 0.998535 26.7301 0.998535Z" fill="#BA90FF" fill-opacity="0.35"/>
<path d="M26.7301 1.99854C27.2824 1.99854 27.7301 1.55082 27.7301 0.998535C27.7301 0.44625 27.2824 -0.00146484 26.7301 -0.00146484V1.99854ZM4.46663 39.4909L3.58831 39.969C3.59678 39.9846 3.60567 39.9999 3.61497 40.015L4.46663 39.4909ZM4.64638 41.802L3.70395 41.4676C3.69834 41.4834 3.69313 41.4994 3.68832 41.5155L4.64638 41.802ZM2.9259 47.554L1.96784 47.2675C1.96596 47.2738 1.96414 47.2801 1.96239 47.2864L2.9259 47.554ZM5.03156 49.557L4.74682 48.5984C4.74194 48.5998 4.73708 48.6013 4.73222 48.6028L5.03156 49.557ZM10.2187 48.0163L10.5034 48.9749C10.5122 48.9723 10.521 48.9695 10.5297 48.9667L10.2187 48.0163ZM14.0474 48.9407L13.5286 49.7957L13.5398 49.8023L14.0474 48.9407ZM26.7301 -0.00146484C26.1778 -0.00146484 25.7301 0.44625 25.7301 0.998535C25.7301 1.55082 26.1778 1.99854 26.7301 1.99854V-0.00146484ZM26.7301 -0.00146484C11.2256 -0.00146484 0 12.6514 0 26.6772H2C2 13.689 12.3959 1.99854 26.7301 1.99854V-0.00146484ZM0 26.6772C0 31.1822 1.31237 35.7876 3.58831 39.969L5.34495 39.0129C3.20415 35.0798 2 30.8003 2 26.6772H0ZM3.61497 40.015C3.84307 40.3857 3.90173 40.9102 3.70395 41.4676L5.58881 42.1364C5.95596 41.1017 5.9119 39.9315 5.31828 38.9668L3.61497 40.015ZM3.68832 41.5155L1.96784 47.2675L3.88397 47.8406L5.60444 42.0886L3.68832 41.5155ZM1.96239 47.2864C1.67508 48.3207 1.96346 49.3177 2.66538 49.9648C3.35608 50.6016 4.35698 50.8167 5.3309 50.5111L4.73222 48.6028C4.39652 48.7082 4.152 48.6151 4.02099 48.4943C3.90119 48.3839 3.79155 48.174 3.88942 47.8217L1.96239 47.2864ZM5.31629 50.5156L10.5034 48.9749L9.93392 47.0577L4.74682 48.5984L5.31629 50.5156ZM10.5297 48.9667C11.4613 48.6618 12.1912 48.9843 13.5287 49.7957L14.566 48.0857C13.2792 47.305 11.8007 46.4463 9.90762 47.0659L10.5297 48.9667ZM13.5398 49.8023C17.4583 52.1105 22.3079 53.2789 26.6787 53.2789V51.2789C22.6269 51.2789 18.1346 50.1876 14.5549 48.0791L13.5398 49.8023ZM26.6787 53.2789C39.887 53.2789 53.3574 43.0736 53.3574 26.6002H51.3574C51.3574 41.8144 38.9437 51.2789 26.6787 51.2789V53.2789ZM53.3574 26.6002C53.3574 12.4092 41.8899 -0.00146484 26.7301 -0.00146484V1.99854C40.7412 1.99854 51.3574 13.4691 51.3574 26.6002H53.3574Z" fill="url(#paint1_linear_2463_14981)" mask="url(#path-3-outside-1_2463_14981)"/>
</g>
<g filter="url(#filter2_bd_2463_14981)">
<mask id="path-5-inside-2_2463_14981" fill="white">
<path fill-rule="evenodd" clip-rule="evenodd" d="M26.6283 29.9894C24.8051 29.9637 23.3414 28.5 23.3414 26.6768C23.3414 24.8793 24.8308 23.3899 26.6283 23.4156C28.4515 23.4156 29.9152 24.8793 29.9152 26.7025C29.9152 28.5 28.4515 29.9894 26.6283 29.9894ZM14.7898 29.9893C12.9923 29.9893 11.5029 28.4999 11.5029 26.7024C11.5029 24.8792 12.9666 23.4155 14.7898 23.4155C16.613 23.4155 18.0767 24.8792 18.0767 26.7024C18.0767 28.4999 16.613 29.9636 14.7898 29.9893ZM35.18 26.7027C35.18 28.5002 36.6437 29.9896 38.4668 29.9896C40.29 29.9896 41.7537 28.5002 41.7537 26.7027C41.7537 24.8795 40.29 23.4158 38.4668 23.4158C36.6437 23.4158 35.18 24.8795 35.18 26.7027Z"/>
</mask>
<path fill-rule="evenodd" clip-rule="evenodd" d="M26.6283 29.9894C24.8051 29.9637 23.3414 28.5 23.3414 26.6768C23.3414 24.8793 24.8308 23.3899 26.6283 23.4156C28.4515 23.4156 29.9152 24.8793 29.9152 26.7025C29.9152 28.5 28.4515 29.9894 26.6283 29.9894ZM14.7898 29.9893C12.9923 29.9893 11.5029 28.4999 11.5029 26.7024C11.5029 24.8792 12.9666 23.4155 14.7898 23.4155C16.613 23.4155 18.0767 24.8792 18.0767 26.7024C18.0767 28.4999 16.613 29.9636 14.7898 29.9893ZM35.18 26.7027C35.18 28.5002 36.6437 29.9896 38.4668 29.9896C40.29 29.9896 41.7537 28.5002 41.7537 26.7027C41.7537 24.8795 40.29 23.4158 38.4668 23.4158C36.6437 23.4158 35.18 24.8795 35.18 26.7027Z" fill="url(#paint2_linear_2463_14981)"/>
<path d="M26.6283 29.9894L26.6227 30.3894H26.6283V29.9894ZM26.6283 23.4156L26.6226 23.8156H26.6283V23.4156ZM14.7898 29.9893V30.3893L14.7954 30.3893L14.7898 29.9893ZM22.9414 26.6768C22.9414 28.722 24.5841 30.3606 26.6227 30.3893L26.634 29.5894C25.0262 29.5668 23.7414 28.278 23.7414 26.6768H22.9414ZM26.634 23.0157C24.61 22.9867 22.9414 24.6595 22.9414 26.6768H23.7414C23.7414 25.0991 25.0516 23.7931 26.6226 23.8156L26.634 23.0157ZM30.3152 26.7025C30.3152 24.6584 28.6724 23.0156 26.6283 23.0156V23.8156C28.2306 23.8156 29.5152 25.1002 29.5152 26.7025H30.3152ZM26.6283 30.3894C28.6745 30.3894 30.3152 28.7189 30.3152 26.7025H29.5152C29.5152 28.2811 28.2286 29.5894 26.6283 29.5894V30.3894ZM11.1029 26.7024C11.1029 28.7208 12.7714 30.3893 14.7898 30.3893V29.5893C13.2132 29.5893 11.9029 28.279 11.9029 26.7024H11.1029ZM14.7898 23.0155C12.7457 23.0155 11.1029 24.6583 11.1029 26.7024H11.9029C11.9029 25.1001 13.1875 23.8155 14.7898 23.8155V23.0155ZM18.4767 26.7024C18.4767 24.6583 16.8339 23.0155 14.7898 23.0155V23.8155C16.3921 23.8155 17.6767 25.1001 17.6767 26.7024H18.4767ZM14.7954 30.3893C16.832 30.3606 18.4767 28.7239 18.4767 26.7024H17.6767C17.6767 28.276 16.394 29.5667 14.7842 29.5893L14.7954 30.3893ZM38.4668 29.5896C36.8666 29.5896 35.58 28.2813 35.58 26.7027H34.78C34.78 28.7191 36.4207 30.3896 38.4668 30.3896V29.5896ZM41.3537 26.7027C41.3537 28.2813 40.0671 29.5896 38.4668 29.5896V30.3896C40.513 30.3896 42.1537 28.7191 42.1537 26.7027H41.3537ZM38.4668 23.8158C40.0691 23.8158 41.3537 25.1004 41.3537 26.7027H42.1537C42.1537 24.6586 40.5109 23.0158 38.4668 23.0158V23.8158ZM35.58 26.7027C35.58 25.1004 36.8646 23.8158 38.4668 23.8158V23.0158C36.4227 23.0158 34.78 24.6586 34.78 26.7027H35.58Z" fill="url(#paint3_linear_2463_14981)" mask="url(#path-5-inside-2_2463_14981)"/>
</g>
<defs>
<filter id="filter0_f_2463_14981" x="11.6924" y="7.04803" width="59.9932" height="59.9932" filterUnits="userSpaceOnUse" color-interpolation-filters="sRGB">
<feFlood flood-opacity="0" result="BackgroundImageFix"/>
<feBlend mode="normal" in="SourceGraphic" in2="BackgroundImageFix" result="shape"/>
<feGaussianBlur stdDeviation="8.5" result="effect1_foregroundBlur_2463_14981"/>
</filter>
<filter id="filter1_b_2463_14981" x="-24" y="-24.0015" width="101.357" height="101.28" filterUnits="userSpaceOnUse" color-interpolation-filters="sRGB">
<feFlood flood-opacity="0" result="BackgroundImageFix"/>
<feGaussianBlur in="BackgroundImageFix" stdDeviation="12"/>
<feComposite in2="SourceAlpha" operator="in" result="effect1_backgroundBlur_2463_14981"/>
<feBlend mode="normal" in="SourceGraphic" in2="effect1_backgroundBlur_2463_14981" result="shape"/>
</filter>
<filter id="filter2_bd_2463_14981" x="-3.49707" y="8.41528" width="60.251" height="36.5743" filterUnits="userSpaceOnUse" color-interpolation-filters="sRGB">
<feFlood flood-opacity="0" result="BackgroundImageFix"/>
<feGaussianBlur in="BackgroundImageFix" stdDeviation="7.5"/>
<feComposite in2="SourceAlpha" operator="in" result="effect1_backgroundBlur_2463_14981"/>
<feColorMatrix in="SourceAlpha" type="matrix" values="0 0 0 0 0 0 0 0 0 0 0 0 0 0 0 0 0 0 127 0" result="hardAlpha"/>
<feOffset dx="5" dy="5"/>
<feGaussianBlur stdDeviation="5"/>
<feColorMatrix type="matrix" values="0 0 0 0 0.577356 0 0 0 0 0.359375 0 0 0 0 0.9375 0 0 0 0.5 0"/>
<feBlend mode="normal" in2="effect1_backgroundBlur_2463_14981" result="effect2_dropShadow_2463_14981"/>
<feBlend mode="normal" in="SourceGraphic" in2="effect2_dropShadow_2463_14981" result="shape"/>
</filter>
<linearGradient id="paint0_linear_2463_14981" x1="41.8753" y1="16.7203" x2="41.8753" y2="56.9075" gradientUnits="userSpaceOnUse">
<stop stop-color="#BC94FF"/>
<stop offset="1" stop-color="#9F66FF"/>
</linearGradient>
<linearGradient id="paint1_linear_2463_14981" x1="9.17527" y1="6.97277" x2="41.8763" y2="47.5347" gradientUnits="userSpaceOnUse">
<stop stop-color="white" stop-opacity="0.25"/>
<stop offset="1" stop-color="white" stop-opacity="0"/>
</linearGradient>
<linearGradient id="paint2_linear_2463_14981" x1="39.609" y1="24.6025" x2="6.61915" y2="29.5518" gradientUnits="userSpaceOnUse">
<stop stop-color="white"/>
<stop offset="1" stop-color="white" stop-opacity="0.2"/>
</linearGradient>
<linearGradient id="paint3_linear_2463_14981" x1="16.3184" y1="24.1812" x2="17.7789" y2="32.5049" gradientUnits="userSpaceOnUse">
<stop stop-color="white" stop-opacity="0.25"/>
<stop offset="1" stop-color="white" stop-opacity="0"/>
</linearGradient>
</defs>
</svg>
