<svg width="70" height="66" viewBox="0 0 70 66" fill="none" xmlns="http://www.w3.org/2000/svg">
<path d="M38.1274 8.99013L18.3122 14.2393C11.0912 16.1521 8.1034 21.307 10.0509 28.4925L15.3899 48.1916C17.3374 55.3771 22.532 58.3644 29.753 56.4516L49.5682 51.2024C56.7891 49.2896 59.7581 44.1397 57.8106 36.9542L52.4716 17.2551C50.5241 10.0696 45.3483 7.07728 38.1274 8.99013Z" fill="url(#paint0_linear_2463_14991)"/>
<g opacity="0.5" filter="url(#filter0_f_2463_14991)">
<path d="M36.8878 17.7091L23.7899 21.1788C19.0168 22.4432 17.0067 25.7207 18.2318 30.2412L21.5906 42.634C22.8158 47.1544 26.2143 48.9992 30.9873 47.7348L44.0852 44.2651C48.8583 43.0007 50.856 39.7265 49.6308 35.206L46.272 22.8132C45.0468 18.2928 41.6608 16.4447 36.8878 17.7091Z" fill="#E31352"/>
</g>
<g filter="url(#filter1_b_2463_14991)">
<path d="M51.9916 19.3578H32.9287C25.475 19.3578 20.4619 24.5511 20.4619 32.2755V50.1027C20.4619 57.8053 25.475 62.9985 32.9287 62.9985H51.9916C59.4453 62.9985 64.4364 57.8053 64.4364 50.1027V32.2755C64.4364 24.5511 59.4453 19.3578 51.9916 19.3578Z" fill="#FF749F" fill-opacity="0.35"/>
<path d="M51.9916 18.8578H32.9287C29.0817 18.8578 25.8299 20.2007 23.5404 22.5728C21.2524 24.9434 19.9619 28.3038 19.9619 32.2755V50.1027C19.9619 54.0638 21.2527 57.4188 23.5406 59.7865C25.83 62.1557 29.0817 63.4985 32.9287 63.4985H51.9916C55.8387 63.4985 59.0851 62.1556 61.3691 59.7861C63.6515 57.4181 64.9364 54.0632 64.9364 50.1027V32.2755C64.9364 28.3044 63.6518 24.944 61.3693 22.5732C59.0853 20.2008 55.8387 18.8578 51.9916 18.8578Z" stroke="url(#paint1_linear_2463_14991)" stroke-linecap="round" stroke-linejoin="round"/>
</g>
<g filter="url(#filter2_b_2463_14991)">
<path d="M66.7689 16.1518C64.9846 16.1518 63.5381 17.5873 63.5381 19.358C63.5381 21.1288 64.9846 22.5643 66.7689 22.5643C68.5532 22.5643 69.9996 21.1288 69.9996 19.358C69.9996 18.5077 69.6593 17.6922 69.0534 17.0909C68.4475 16.4896 67.6257 16.1518 66.7689 16.1518Z" fill="url(#paint2_linear_2463_14991)"/>
</g>
<g filter="url(#filter3_bd_2463_14991)">
<path d="M53.9526 37.3138L47.669 45.3608C47.4046 45.7105 47.0081 45.9387 46.5705 45.9929C46.1329 46.0471 45.692 45.9227 45.3489 45.6482L39.3166 40.9541L33.8837 47.9281C33.4903 48.5481 32.724 48.8267 32.0193 48.6059C31.3146 48.3852 30.8492 47.7207 30.8869 46.9893C30.8836 46.6274 31.0066 46.2755 31.2349 45.993L37.7312 37.6779C37.9924 37.3309 38.3836 37.1029 38.8165 37.0452C39.2494 36.9875 39.6876 37.1051 40.032 37.3713L46.0642 42.0845L51.3618 35.3213C51.6165 34.9726 52.0029 34.7411 52.4329 34.6797C52.8628 34.6183 53.2995 34.7323 53.6432 34.9956C54.3532 35.5466 54.4905 36.5582 53.9526 37.2755V37.3138Z" fill="url(#paint3_linear_2463_14991)"/>
<path d="M47.5113 45.2377L47.5113 45.2377L47.5094 45.2402C47.2779 45.5465 46.9302 45.7468 46.5459 45.7944C46.1617 45.842 45.7746 45.7327 45.4738 45.492L45.4717 45.4903L39.4394 40.7963L39.2817 40.6735L39.1588 40.8312L33.7259 47.8052L33.72 47.8128L33.7148 47.821C33.3703 48.3639 32.6981 48.609 32.0791 48.4151C31.4604 48.2213 31.0537 47.6388 31.0866 46.9996L31.087 46.9996L31.0869 46.9875C31.084 46.6722 31.1911 46.3653 31.3904 46.1188L31.3905 46.1188L31.3925 46.1161L37.8888 37.801L37.8888 37.801L37.891 37.7982C38.1197 37.4943 38.4628 37.2941 38.8429 37.2434C39.2229 37.1928 39.6073 37.296 39.9092 37.5292C39.9093 37.5293 39.9095 37.5294 39.9096 37.5296L45.9411 42.2421L46.0985 42.3651L46.2217 42.2078L51.5192 35.4446L51.5193 35.4447L51.5233 35.4392C51.746 35.1344 52.0842 34.9315 52.4612 34.8777C52.8379 34.8239 53.2204 34.9238 53.5211 35.154C54.1448 35.6385 54.2646 36.5261 53.7925 37.1555L53.7526 37.2089V37.245L47.5113 45.2377Z" stroke="url(#paint4_linear_2463_14991)" stroke-width="0.4"/>
</g>
<defs>
<filter id="filter0_f_2463_14991" x="0.880859" y="0.320068" width="66.1025" height="64.8041" filterUnits="userSpaceOnUse" color-interpolation-filters="sRGB">
<feFlood flood-opacity="0" result="BackgroundImageFix"/>
<feBlend mode="normal" in="SourceGraphic" in2="BackgroundImageFix" result="shape"/>
<feGaussianBlur stdDeviation="8.5" result="effect1_foregroundBlur_2463_14991"/>
</filter>
<filter id="filter1_b_2463_14991" x="-4.53809" y="-5.64215" width="93.9746" height="93.6407" filterUnits="userSpaceOnUse" color-interpolation-filters="sRGB">
<feFlood flood-opacity="0" result="BackgroundImageFix"/>
<feGaussianBlur in="BackgroundImageFix" stdDeviation="12"/>
<feComposite in2="SourceAlpha" operator="in" result="effect1_backgroundBlur_2463_14991"/>
<feBlend mode="normal" in="SourceGraphic" in2="effect1_backgroundBlur_2463_14991" result="shape"/>
</filter>
<filter id="filter2_b_2463_14991" x="48.5381" y="1.15179" width="36.4619" height="36.4125" filterUnits="userSpaceOnUse" color-interpolation-filters="sRGB">
<feFlood flood-opacity="0" result="BackgroundImageFix"/>
<feGaussianBlur in="BackgroundImageFix" stdDeviation="7.5"/>
<feComposite in2="SourceAlpha" operator="in" result="effect1_backgroundBlur_2463_14991"/>
<feBlend mode="normal" in="SourceGraphic" in2="effect1_backgroundBlur_2463_14991" result="shape"/>
</filter>
<filter id="filter3_bd_2463_14991" x="15.8848" y="19.6635" width="53.3965" height="44.0175" filterUnits="userSpaceOnUse" color-interpolation-filters="sRGB">
<feFlood flood-opacity="0" result="BackgroundImageFix"/>
<feGaussianBlur in="BackgroundImageFix" stdDeviation="7.5"/>
<feComposite in2="SourceAlpha" operator="in" result="effect1_backgroundBlur_2463_14991"/>
<feColorMatrix in="SourceAlpha" type="matrix" values="0 0 0 0 0 0 0 0 0 0 0 0 0 0 0 0 0 0 127 0" result="hardAlpha"/>
<feOffset dx="5" dy="5"/>
<feGaussianBlur stdDeviation="5"/>
<feColorMatrix type="matrix" values="0 0 0 0 1 0 0 0 0 0.321569 0 0 0 0 0.54902 0 0 0 0.5 0"/>
<feBlend mode="normal" in2="effect1_backgroundBlur_2463_14991" result="effect2_dropShadow_2463_14991"/>
<feBlend mode="normal" in="SourceGraphic" in2="effect2_dropShadow_2463_14991" result="shape"/>
</filter>
<linearGradient id="paint0_linear_2463_14991" x1="37.8199" y1="34.7228" x2="5.6074" y2="62.8314" gradientUnits="userSpaceOnUse">
<stop stop-color="#FF759F"/>
<stop offset="1" stop-color="#FF196E"/>
</linearGradient>
<linearGradient id="paint1_linear_2463_14991" x1="27.4619" y1="24.442" x2="55.2546" y2="59.1272" gradientUnits="userSpaceOnUse">
<stop stop-color="white" stop-opacity="0.25"/>
<stop offset="1" stop-color="white" stop-opacity="0"/>
</linearGradient>
<linearGradient id="paint2_linear_2463_14991" x1="67.2446" y1="19.7875" x2="61.5835" y2="22.5611" gradientUnits="userSpaceOnUse">
<stop stop-color="#FF759F"/>
<stop offset="1" stop-color="#FF196E"/>
</linearGradient>
<linearGradient id="paint3_linear_2463_14991" x1="52.622" y1="37.1947" x2="26.6104" y2="38.6102" gradientUnits="userSpaceOnUse">
<stop stop-color="white"/>
<stop offset="1" stop-color="white" stop-opacity="0.2"/>
</linearGradient>
<linearGradient id="paint4_linear_2463_14991" x1="34.609" y1="36.2965" x2="41.7806" y2="51.1213" gradientUnits="userSpaceOnUse">
<stop stop-color="white" stop-opacity="0.25"/>
<stop offset="1" stop-color="white" stop-opacity="0"/>
</linearGradient>
</defs>
</svg>
